<?xml version="1.0" encoding="UTF-8" standalone="no"?>
<svg
   xmlns:dc="http://purl.org/dc/elements/1.1/"
   xmlns:cc="http://creativecommons.org/ns#"
   xmlns:rdf="http://www.w3.org/1999/02/22-rdf-syntax-ns#"
   xmlns:svg="http://www.w3.org/2000/svg"
   xmlns="http://www.w3.org/2000/svg"
   xmlns:sodipodi="http://sodipodi.sourceforge.net/DTD/sodipodi-0.dtd"
   xmlns:inkscape="http://www.inkscape.org/namespaces/inkscape"
   id="Layer_1"
   style="enable-background:new 0 0 512 512;"
   version="1.1"
   viewBox="0 0 512 512"
   xml:space="preserve"
   inkscape:version="0.91 r13725"
   sodipodi:docname="json.svg"><metadata
     id="metadata20"><rdf:RDF><cc:Work
         rdf:about=""><dc:format>image/svg+xml</dc:format><dc:type
           rdf:resource="http://purl.org/dc/dcmitype/StillImage" /><dc:title></dc:title></cc:Work></rdf:RDF></metadata><defs
     id="defs18" /><sodipodi:namedview
     pagecolor="#ffffff"
     bordercolor="#666666"
     borderopacity="1"
     objecttolerance="10"
     gridtolerance="10"
     guidetolerance="10"
     inkscape:pageopacity="0"
     inkscape:pageshadow="2"
     inkscape:window-width="1920"
     inkscape:window-height="1120"
     id="namedview16"
     showgrid="false"
     inkscape:zoom="0.99"
     inkscape:cx="256"
     inkscape:cy="256"
     inkscape:window-x="0"
     inkscape:window-y="27"
     inkscape:window-maximized="1"
     inkscape:current-layer="Layer_1" /><style
     type="text/css"
     id="style3">
	.st0{fill:#FFDEF9;}
	.st1{fill:#955E88;}
	.st2{fill:#6B3763;}
	.st3{fill:#FFFFFF;}
</style><g
     id="XMLID_169_"><g
       id="XMLID_88_"><polygon
         class="st0"
         id="XMLID_92_"
         points="330.7,6 87.9,6 87.9,506 449.2,506 449.2,122.8   " /><polygon
         class="st1"
         id="XMLID_91_"
         points="330.7,6 449.2,122.8 330.7,122.8   " /><rect
         class="st1"
         height="156.1"
         id="XMLID_90_"
         width="329"
         x="62.8"
         y="298.8" /><polygon
         class="st2"
         id="XMLID_89_"
         points="62.8,454.9 87.9,476.1 87.9,454.9   " /></g></g><g
     style="font-style:normal;font-weight:normal;font-size:40px;line-height:125%;font-family:sans-serif;letter-spacing:0px;word-spacing:0px;fill:#000000;fill-opacity:1;stroke:none;stroke-width:1px;stroke-linecap:butt;stroke-linejoin:miter;stroke-opacity:1"
     id="text3348"
     transform="matrix(2.4352347,0,0,2.4352347,-129.42509,-158.09286)"><path
       d="m 105.32548,208.09109 6.99219,0 0,21.48438 q 0,4.39453 -2.10938,6.69922 -2.10937,2.32422 -6.11328,2.32422 l -3.45703,0 0,-4.58985 1.21094,0 q 1.99218,0 2.73437,-0.89843 0.74219,-0.89844 0.74219,-3.53516 l 0,-21.48438 z m 0,-8.51562 6.99219,0 0,5.70312 -6.99219,0 0,-5.70312 z"
       style="font-style:normal;font-variant:normal;font-weight:bold;font-stretch:normal;font-size:40px;line-height:125%;font-family:'DejaVu Sans';-inkscape-font-specification:'DejaVu Sans, Bold';text-align:start;writing-mode:lr-tb;text-anchor:start;fill:#ffffff"
       id="path4153"
       inkscape:connector-curvature="0" /><path
       d="m 136.16532,208.77469 0,5.3125 q -2.24609,-0.9375 -4.33594,-1.40625 -2.08984,-0.46875 -3.94531,-0.46875 -1.99219,0 -2.96875,0.50781 -0.95703,0.48828 -0.95703,1.52344 0,0.83984 0.72266,1.28906 0.74218,0.44922 2.63672,0.66406 l 1.23046,0.17578 q 5.3711,0.6836 7.22657,2.2461 1.85547,1.5625 1.85547,4.90234 0,3.4961 -2.57813,5.25391 -2.57812,1.75781 -7.69531,1.75781 -2.16797,0 -4.49219,-0.35156 -2.30469,-0.33203 -4.74609,-1.01563 l 0,-5.3125 q 2.08984,1.01563 4.27734,1.52344 2.20703,0.50781 4.47266,0.50781 2.05078,0 3.08593,-0.5664 1.03516,-0.56641 1.03516,-1.67969 0,-0.9375 -0.72266,-1.38672 -0.70312,-0.46875 -2.83203,-0.72266 l -1.23047,-0.15625 q -4.66796,-0.58593 -6.54296,-2.16796 -1.875,-1.58204 -1.875,-4.80469 0,-3.47656 2.38281,-5.15625 2.38281,-1.67969 7.30469,-1.67969 1.93359,0 4.0625,0.29297 2.1289,0.29297 4.6289,0.91797 z"
       style="font-style:normal;font-variant:normal;font-weight:bold;font-stretch:normal;font-size:40px;line-height:125%;font-family:'DejaVu Sans';-inkscape-font-specification:'DejaVu Sans, Bold';text-align:start;writing-mode:lr-tb;text-anchor:start;fill:#ffffff"
       id="path4155"
       inkscape:connector-curvature="0" /><path
       d="m 153.31376,212.56375 q -2.32422,0 -3.55469,1.67969 -1.21094,1.66015 -1.21094,4.80469 0,3.14453 1.21094,4.82421 1.23047,1.66016 3.55469,1.66016 2.28516,0 3.49609,-1.66016 1.21094,-1.67968 1.21094,-4.82421 0,-3.14454 -1.21094,-4.80469 -1.21093,-1.67969 -3.49609,-1.67969 z m 0,-5 q 5.64453,0 8.80859,3.04688 3.1836,3.04687 3.1836,8.4375 0,5.39062 -3.1836,8.4375 -3.16406,3.04687 -8.80859,3.04687 -5.66406,0 -8.86719,-3.04687 -3.18359,-3.04688 -3.18359,-8.4375 0,-5.39063 3.18359,-8.4375 3.20313,-3.04688 8.86719,-3.04688 z"
       style="font-style:normal;font-variant:normal;font-weight:bold;font-stretch:normal;font-size:40px;line-height:125%;font-family:'DejaVu Sans';-inkscape-font-specification:'DejaVu Sans, Bold';text-align:start;writing-mode:lr-tb;text-anchor:start;fill:#ffffff"
       id="path4157"
       inkscape:connector-curvature="0" /><path
       d="m 192.39579,216.64578 0,13.32031 -7.03125,0 0,-2.16796 0,-8.02735 q 0,-2.83203 -0.13672,-3.90625 -0.11719,-1.07422 -0.42969,-1.58203 -0.41015,-0.68359 -1.11328,-1.05469 -0.70312,-0.39062 -1.60156,-0.39062 -2.1875,0 -3.4375,1.69922 -1.25,1.67968 -1.25,4.66797 l 0,10.76171 -6.99219,0 0,-21.875 6.99219,0 0,3.20313 q 1.58203,-1.91406 3.35938,-2.8125 1.77734,-0.91797 3.92578,-0.91797 3.78906,0 5.74218,2.32422 1.97266,2.32422 1.97266,6.75781 z"
       style="font-style:normal;font-variant:normal;font-weight:bold;font-stretch:normal;font-size:40px;line-height:125%;font-family:'DejaVu Sans';-inkscape-font-specification:'DejaVu Sans, Bold';text-align:start;writing-mode:lr-tb;text-anchor:start;fill:#ffffff"
       id="path4159"
       inkscape:connector-curvature="0" /></g></svg>