<?xml version="1.0" ?><svg id="Layer_1" style="enable-background:new 0 0 512 512;" version="1.1" viewBox="0 0 512 512" xml:space="preserve" xmlns="http://www.w3.org/2000/svg" xmlns:xlink="http://www.w3.org/1999/xlink"><style type="text/css">
	.st0{fill:#F9DAAC;}
	.st1{fill:#F8A71A;}
	.st2{fill:#ED910C;}
	.st3{fill:#FFFFFF;}
</style><g id="XMLID_167_"><g id="XMLID_78_"><polygon class="st0" id="XMLID_82_" points="330.7,6 87.9,6 87.9,506 449.2,506 449.2,122.8   "/><polygon class="st1" id="XMLID_81_" points="330.7,6 449.2,122.8 330.7,122.8   "/><rect class="st1" height="156.1" id="XMLID_80_" width="329" x="62.8" y="298.8"/><polygon class="st2" id="XMLID_79_" points="62.8,454.9 87.9,476.1 87.9,454.9   "/></g><g id="XMLID_3114_"><path class="st3" d="M125,387.9c0-9.3,2.6-16.8,7.9-22.6c5.2-5.8,12.5-8.7,21.9-8.7c9.4,0,16.7,2.9,22,8.7    c5.2,5.8,7.9,13.4,7.9,22.6v1.2c0,9.3-2.6,16.9-7.9,22.7c-5.2,5.8-12.5,8.7-21.9,8.7c-9.4,0-16.8-2.9-22-8.7    c-5.2-5.8-7.9-13.4-7.9-22.7V387.9z M144.2,389.1c0,5.2,0.8,9.2,2.4,12.2c1.6,2.9,4.4,4.4,8.2,4.4c3.8,0,6.5-1.5,8.1-4.4    c1.6-3,2.4-7,2.4-12.1v-1.2c0-5-0.8-9-2.4-12c-1.6-3-4.4-4.5-8.2-4.5c-3.8,0-6.5,1.5-8.1,4.6c-1.6,3-2.4,7-2.4,12V389.1z" id="XMLID_3010_"/><path class="st3" d="M198.7,388.6c0-9.6,2.1-17.3,6.3-23.2c4.2-5.9,10.1-8.8,17.7-8.8c2.8,0,5.4,0.7,7.7,2    c2.3,1.3,4.4,3.2,6.2,5.6v-33.6h19.2v88.8H239l-1.3-7.5c-1.9,2.8-4,5-6.5,6.5c-2.5,1.5-5.3,2.2-8.6,2.2c-7.6,0-13.5-2.8-17.6-8.4    c-4.2-5.6-6.3-13-6.3-22.3V388.6z M217.9,389.8c0,5,0.7,8.9,2.2,11.7c1.5,2.8,3.9,4.2,7.4,4.2c2,0,3.8-0.4,5.3-1.1    c1.5-0.7,2.8-1.8,3.8-3.3v-24.9c-1-1.6-2.2-2.9-3.8-3.8c-1.5-0.9-3.3-1.3-5.2-1.3c-3.4,0-5.9,1.6-7.4,4.7    c-1.5,3.2-2.3,7.3-2.3,12.5V389.8z" id="XMLID_3013_"/><path class="st3" d="M307,402c0-1.5-0.9-2.9-2.6-4.1c-1.7-1.2-4.9-2.3-9.4-3.2c-7.2-1.4-12.6-3.6-16.2-6.5    c-3.6-2.9-5.5-7-5.5-12.2c0-5.4,2.3-10,6.8-13.8c4.6-3.8,10.7-5.7,18.5-5.7c8.2,0,14.7,1.8,19.6,5.5c4.9,3.7,7.2,8.4,6.9,14.2    l-0.1,0.3h-18.7c0-2.4-0.6-4.3-1.8-5.5c-1.2-1.3-3.2-1.9-6-1.9c-2,0-3.7,0.6-5.1,1.7s-2,2.5-2,4.2c0,1.6,0.8,3,2.4,4.2    c1.6,1.1,4.8,2.2,9.5,3.1c7.6,1.5,13.1,3.7,16.7,6.6c3.6,2.9,5.4,7.1,5.4,12.5c0,5.5-2.5,10.1-7.4,13.7    c-4.9,3.6-11.4,5.4-19.5,5.4c-8.4,0-15-2.1-19.9-6.4c-4.9-4.3-7.2-9-7-14.2l0.1-0.3h17.4c0.1,2.9,1,5,2.6,6.3    c1.7,1.3,4.1,1.9,7.2,1.9c2.6,0,4.5-0.5,5.9-1.5C306.3,405.3,307,403.9,307,402z" id="XMLID_3016_"/></g></g></svg>